# xmcd
#
# Track frame offsets:
#	150
#	18695
#	35609
#	53284
#	71935
#	86965
#	112196
#	130327
#	151781
#	175770
#	195074
#
# Disc length: 2839 seconds
#
# Revision: 0
# Processed by: cddbd v1.5.2PL0 Copyright (c) Steve Scherf et al.
# Submitted via: dBpowerAMP V4.0
#
DISCID=8f0b150b
DTITLE=Herwig Mitteregger - Fandango
DYEAR=2009
DGENRE=Blues
TTITLE0=Alaska
TTITLE1=AHA
TTITLE2=HHH
TTITLE3=Ben
TTITLE4=Frei
TTITLE5=Fandango
TTITLE6=Not Ausgang 2009
TTITLE7=Sonntag
TTITLE8=Kreise
TTITLE9=So nah so fern
TTITLE10=Aufm Land
EXTD=
EXTT0=
EXTT1=
EXTT2=
EXTT3=
EXTT4=
EXTT5=
EXTT6=
EXTT7=
EXTT8=
EXTT9=
EXTT10=
PLAYORDER=
